<svg width="26" height="26" viewBox="0 0 26 26" fill="none" xmlns="http://www.w3.org/2000/svg">
<path d="M20.9991 11.2388C21.6812 10.7174 22.0816 9.90804 22.0825 9.04958V8.65471H20.5835L22.7745 6.15048L22.1799 5.63061L19.5339 8.65473H14.9748V9.04959C14.9754 9.90805 15.3761 10.7175 16.0583 11.2389C15.5208 11.5112 15.1368 12.0134 15.0145 12.6034H12.6056V0.75708H1.54899V12.6034H0.759277V23.6599H2.42534L2.81998 25.2394H6.59609L6.99073 23.6599H19.0102L19.4048 25.2394H23.1807L23.5753 23.6599H25.2414V12.6034H22.0425C21.9204 12.0134 21.5363 11.5112 20.999 11.2389L20.9991 11.2388ZM21.2528 9.44444H21.2531C21.1613 9.88997 20.9189 10.2904 20.5664 10.5781C20.214 10.8659 19.7734 11.0232 19.3182 11.0239H17.7387C17.2838 11.0232 16.843 10.8659 16.4905 10.5781C16.1383 10.2904 15.8956 9.88998 15.8041 9.44444H21.2528ZM16.9491 11.8136H20.108C20.3522 11.8143 20.5901 11.8906 20.7892 12.0322C20.9884 12.1735 21.1388 12.373 21.2201 12.6034H15.8373C15.9185 12.373 16.0687 12.1735 16.2678 12.0322C16.4669 11.8906 16.7049 11.8143 16.9491 11.8136H16.9491ZM5.49764 11.0239H3.91816V6.28552H5.49764V11.0239ZM6.28736 7.86501H7.86685L7.86707 11.0239H6.28758L6.28736 7.86501ZM6.28736 7.07529L6.28758 5.49581H3.12844V11.0239H2.33872V3.12621H11.8159V11.0239H8.65695V7.07523L6.28736 7.07529ZM11.8157 1.54695V2.33666H2.33856V1.54695H11.8157ZM2.33856 11.8138H11.8157V12.6035H2.33856V11.8138ZM5.97873 24.4498H3.43701L3.23925 23.6601H6.17651L5.97873 24.4498ZM22.5633 24.4498H20.0216L19.8238 23.6601H22.7611L22.5633 24.4498ZM1.54901 22.8703V14.9726H24.4513V22.8698L1.54901 22.8703ZM24.4513 14.1835L1.54901 14.1832V13.3935H24.4513V14.1835ZM18.9232 3.52175H19.7129V4.38941C19.7134 4.93159 19.5529 5.46152 19.2517 5.91238C19.0372 6.23358 18.9229 6.61123 18.9232 6.99763V7.86529H18.1335V6.99763C18.1332 6.45545 18.2937 5.92529 18.5948 5.47443C18.8091 5.15323 18.9236 4.77558 18.9232 4.38941V3.52175ZM16.554 2.73203L17.3437 2.73181V3.59947C17.3442 4.14166 17.1837 4.67181 16.8825 5.12267C16.668 5.44387 16.5537 5.82153 16.554 6.20793V7.07558H15.7643V6.20793C15.7638 5.66574 15.9243 5.13558 16.2254 4.68473C16.4399 4.36352 16.5544 3.98587 16.554 3.59947V2.73203ZM2.33856 22.0806H23.6614L23.6616 15.7623H2.33821L2.33856 22.0806ZM22.8717 21.2909L13.3951 21.2907V16.5523H22.8723L22.8717 21.2909ZM3.12827 16.5523H12.6054V21.2907H3.12827V16.5523ZM14.1848 19.7112V18.1317H14.9746V19.7112H14.1848ZM11.8156 18.1317V19.7112H11.0259V18.1317H11.8156Z" fill="#967E76"/>
</svg>
