<svg width="30" height="30" viewBox="0 0 30 30" fill="none" xmlns="http://www.w3.org/2000/svg">
<path d="M29.7999 12.8912C29.7999 11.8529 29.1633 10.932 28.2183 10.5521C28.2191 10.5264 28.2193 10.4997 28.2193 10.4737C28.2193 8.76783 26.8316 7.38008 25.1257 7.38008C24.9205 7.38008 24.7175 7.40035 24.5175 7.44088C24.4276 6.13055 23.3327 5.09175 21.9999 5.09175C20.9614 5.09175 20.04 5.72834 19.6609 6.67334C19.6346 6.67256 19.6084 6.6723 19.5819 6.6723C17.8761 6.6723 16.4888 8.06005 16.4888 9.76589C16.4888 9.97116 16.5091 10.1741 16.5499 10.3742C15.2388 10.4635 14.2 11.5585 14.2 12.8914C14.2 13.9297 14.8368 14.8514 15.7821 15.2307C15.7813 15.257 15.781 15.2832 15.781 15.3092C15.781 17.015 17.1685 18.4028 18.8741 18.4028C19.0794 18.4028 19.2826 18.3825 19.4826 18.3417C19.5637 19.5276 20.4687 20.4883 21.6273 20.661L21.6276 29.0548H7.1028V21.0827C7.79319 21.6541 8.66596 21.9812 9.57539 21.9812C11.718 21.9812 13.4607 20.2385 13.4607 18.096C13.4607 17.1273 13.0943 16.1945 12.4442 15.4815C13.0943 14.7685 13.4607 13.8354 13.4607 12.8667C13.4607 11.8981 13.0943 10.9653 12.4442 10.2523C13.0943 9.53928 13.4607 8.60651 13.4607 7.63781C13.4607 5.88109 12.2823 4.35664 10.6157 3.89567V3.88502C10.6157 1.74269 8.87303 0 6.73044 0C4.58784 0 2.84515 1.74269 2.84515 3.88529V3.89594C1.17829 4.35688 0 5.88135 0 7.63808C0 8.6067 0.366365 9.53955 1.01645 10.2525C0.366351 10.9655 0 11.8981 0 12.8667C0 13.8352 0.366365 14.7685 1.01645 15.4815C0.366351 16.1948 0 17.1278 0 18.096C0 20.2385 1.74269 21.9812 3.88528 21.9812C4.79471 21.9812 5.66749 21.6538 6.35787 21.0827V29.0548H0.372631C0.166839 29.0548 2.68969e-05 29.2214 2.68969e-05 29.4274C2.68969e-05 29.6332 0.166579 29.8 0.372631 29.8H29.4275C29.6333 29.8 29.8001 29.6335 29.8001 29.4274C29.8001 29.2217 29.6335 29.0548 29.4275 29.0548H22.3726V20.663C23.2542 20.5313 24.006 19.9399 24.3395 19.1097C24.3653 19.1105 24.392 19.1107 24.418 19.1107C26.1238 19.1107 27.5116 17.723 27.5116 16.0171C27.5116 15.8124 27.4913 15.6089 27.4505 15.4089C28.7611 15.3192 29.7999 14.2242 29.7999 12.8913L29.7999 12.8912ZM0.745044 18.0959C0.745044 17.208 1.12726 16.3561 1.79349 15.7589C1.87248 15.688 1.91743 15.5872 1.91743 15.4814C1.91743 15.3757 1.87222 15.2749 1.79349 15.2039C1.12752 14.6071 0.745044 13.7551 0.745044 12.8667C0.745044 11.9784 1.12726 11.1263 1.79349 10.5297C1.87248 10.4591 1.91743 10.358 1.91743 10.2522C1.91743 10.1465 1.87222 10.0451 1.79349 9.97473C1.12752 9.37815 0.745044 8.52645 0.745044 7.63804C0.745044 6.12942 1.82023 4.8326 3.30158 4.55409C3.48918 4.51875 3.61988 4.34752 3.60377 4.15733C3.59649 4.06742 3.58999 3.97726 3.58999 3.88554C3.59025 2.15376 4.9991 0.744922 6.73062 0.744922C8.46213 0.744922 9.87097 2.15376 9.87097 3.88528C9.87097 3.977 9.86448 4.06716 9.8572 4.15706C9.84109 4.34726 9.97179 4.51875 10.1594 4.55382C11.6407 4.83237 12.7159 6.12922 12.7159 7.63777C12.7159 8.52612 12.3337 9.37814 11.6675 9.97473C11.5885 10.0454 11.5435 10.1465 11.5435 10.2522C11.5435 10.358 11.5887 10.4593 11.6675 10.5297C12.3334 11.1263 12.7159 11.9783 12.7159 12.8667C12.7159 13.7553 12.3337 14.6073 11.6675 15.2039C11.5885 15.2746 11.5435 15.3757 11.5435 15.4814C11.5435 15.5872 11.5887 15.6885 11.6675 15.7589C12.3334 16.3555 12.7159 17.2075 12.7159 18.0959C12.7159 19.8274 11.3071 21.2362 9.57557 21.2362C8.70618 21.2362 7.87598 20.8681 7.28537 20.2374L9.31728 18.2058C9.46279 18.0603 9.46279 17.8246 9.31728 17.6791C9.17177 17.5336 8.9361 17.5336 8.79059 17.6791L7.10298 19.3667V15.2834L9.31728 13.0691C9.46279 12.9236 9.46279 12.6879 9.31728 12.5424C9.17177 12.3969 8.9361 12.3969 8.79059 12.5424L7.10298 14.23V10.147L9.31728 7.93269C9.46279 7.78718 9.46279 7.55151 9.31728 7.406C9.17177 7.26049 8.9361 7.26049 8.79059 7.406L7.10298 9.09362V4.99967C7.10298 4.79387 6.93643 4.62706 6.73037 4.62706C6.52458 4.62706 6.35777 4.79361 6.35777 4.99967V9.09362L4.67016 7.406C4.52465 7.26049 4.28898 7.26049 4.14347 7.406C3.99796 7.55151 3.99796 7.78718 4.14347 7.93269L6.35777 10.147V14.23L4.67016 12.5424C4.52465 12.3969 4.28898 12.3969 4.14347 12.5424C3.99796 12.6879 3.99796 12.9236 4.14347 13.0691L6.35777 15.2834V19.3667L4.67016 17.6791C4.52465 17.5336 4.28898 17.5336 4.14347 17.6791C3.99796 17.8246 3.99796 18.0603 4.14347 18.2058L6.17538 20.2377C5.58478 20.8683 4.7549 21.2365 3.88518 21.2365C2.15393 21.2365 0.745093 19.8274 0.745093 18.0959H0.745044ZM27.2762 14.6697C27.1936 14.6697 27.1068 14.6622 27.0018 14.6461C26.8711 14.6258 26.737 14.6778 26.6536 14.7822C26.5702 14.8867 26.5497 15.0278 26.5988 15.1517C26.7098 15.431 26.7661 15.7226 26.7661 16.0172C26.7661 17.3123 25.7128 18.3656 24.4177 18.3656C24.3185 18.3656 24.2211 18.3573 24.1249 18.3448C23.9415 18.3238 23.765 18.4386 23.7178 18.6197C23.545 19.2771 23.0157 19.763 22.3721 19.9017L22.3724 14.34L24.3421 12.3705C24.4877 12.225 24.4877 11.9893 24.3421 11.8438C24.1966 11.6983 23.961 11.6983 23.8155 11.8438L22.3724 13.2866V11.3478C22.3724 11.142 22.2058 10.9752 21.9998 10.9752C21.794 10.9752 21.6272 11.1417 21.6272 11.3478V15.3885L20.1497 13.9108C20.0042 13.7653 19.7686 13.7653 19.6231 13.9108C19.4775 14.0563 19.4775 14.2919 19.6231 14.4375L21.6274 16.4418V19.9054C20.8256 19.7334 20.2217 19.0204 20.2217 18.1682C20.2217 18.0853 20.2292 17.9982 20.2454 17.8943C20.2656 17.7623 20.2142 17.629 20.1097 17.5459C20.0424 17.4923 19.9603 17.4648 19.8772 17.4648C19.8309 17.4648 19.7841 17.4736 19.7397 17.491C19.4607 17.602 19.1696 17.6581 18.8739 17.6581C17.5792 17.6581 16.5258 16.6047 16.5258 15.3097C16.5258 15.2099 16.5341 15.1122 16.5461 15.0158C16.5689 14.8306 16.4515 14.6573 16.2712 14.61C15.4901 14.4047 14.9449 13.6985 14.9449 12.8919C14.9449 11.9116 15.7426 11.1139 16.7235 11.1139C16.8053 11.1139 16.8947 11.1215 16.9973 11.1376C17.1312 11.1578 17.2626 11.1064 17.3458 11.0019C17.4292 10.8972 17.4497 10.7564 17.4006 10.6319C17.2897 10.3529 17.2335 10.0619 17.2335 9.76641C17.2335 8.47139 18.2869 7.41802 19.5817 7.41802C19.6814 7.41802 19.7791 7.42633 19.8761 7.43828C20.0624 7.46479 20.2346 7.3437 20.2824 7.16338C20.4869 6.38286 21.1934 5.83742 21.9997 5.83742C22.9803 5.83742 23.7782 6.6351 23.7782 7.61543C23.7782 7.69754 23.7707 7.78718 23.7546 7.88826C23.7335 8.02026 23.7852 8.15381 23.8894 8.23722C23.9939 8.32062 24.1352 8.34167 24.2597 8.29282C24.5387 8.18187 24.8297 8.12575 25.1255 8.12575C26.4205 8.12575 27.4739 9.17912 27.4739 10.4741C27.4739 10.5739 27.465 10.6716 27.4531 10.768C27.4302 10.9533 27.5477 11.1266 27.728 11.1739C28.5093 11.3786 29.0547 12.0851 29.0547 12.8911C29.0547 13.872 28.257 14.6696 27.2761 14.6696L27.2762 14.6697Z" fill="#967E76"/>
</svg>
