<svg width="29" height="22" viewBox="0 0 29 22" fill="none" xmlns="http://www.w3.org/2000/svg">
<path d="M27.5771 18.8231H19.1457C20.2407 18.2173 21.1534 17.3295 21.7893 16.252C22.4252 15.1743 22.7609 13.9461 22.7619 12.6949H23.6373C24.5757 12.6949 25.4428 12.1942 25.9118 11.3817C26.381 10.5692 26.381 9.56785 25.9118 8.75532C25.4428 7.9428 24.5757 7.44214 23.6373 7.44214H8.31685C8.07512 7.44214 7.87912 7.63814 7.87912 7.87987V12.6949C7.87932 13.1496 7.92348 13.6033 8.01102 14.0497C7.57545 14.4387 7.24658 15.0373 7.0957 15.7498C6.58568 15.4793 5.9498 15.3212 5.25274 15.3212C3.53464 15.3212 2.18864 16.2827 2.18864 17.5099C2.18864 18.0066 2.40907 18.4598 2.78565 18.823H0.437728C0.196002 18.823 0 19.0191 0 19.2608V19.9174C0.000390804 20.3236 0.161999 20.7129 0.449259 21.0002C0.736519 21.2874 1.12576 21.4491 1.53207 21.4494H26.4826C26.8888 21.449 27.2781 21.2874 27.5654 21.0002C27.8526 20.7129 28.0143 20.3237 28.0146 19.9174V19.2608C28.0146 19.1447 27.9685 19.0333 27.8865 18.9512C27.8044 18.8692 27.693 18.823 27.5769 18.823L27.5771 18.8231ZM22.7621 8.31759H23.6376C24.2631 8.31759 24.8412 8.65136 25.154 9.19305C25.4666 9.73473 25.4666 10.4023 25.154 10.944C24.8411 11.4856 24.2631 11.8194 23.6376 11.8194H22.7621V8.31759ZM8.75483 8.31759H21.8867V12.6949C21.8849 14.3196 21.2387 15.8774 20.0898 17.0262C18.941 18.1751 17.3832 18.8213 15.7585 18.8231H14.883C13.581 18.8274 12.3121 18.4123 11.2641 17.6397C11.3425 17.3104 11.382 16.9729 11.3812 16.6344C11.3812 14.9163 10.4197 13.5703 9.19254 13.5703C9.06806 13.5705 8.94418 13.5852 8.82321 13.6141C8.77768 13.3098 8.75482 13.0026 8.75482 12.6949L8.75483 8.31759ZM11.4895 18.8231H10.7377C10.8149 18.7158 10.8851 18.6036 10.9474 18.4872C11.124 18.6081 11.3048 18.7201 11.4895 18.8231H11.4895ZM9.50207 16.3247C9.04362 15.8663 9.29141 14.9611 9.46377 14.4951C10.0504 14.71 10.5057 15.6025 10.5057 16.6345C10.5057 17.3661 10.2771 18.0276 9.93451 18.427C10.0774 17.7622 10.0914 16.9147 9.50226 16.3248L9.50207 16.3247ZM8.44842 14.8519C8.30772 15.5155 8.29638 16.3578 8.88282 16.9442C9.34127 17.4022 9.09407 18.3066 8.92171 18.7723C8.65478 18.6732 8.40619 18.4309 8.21644 18.078V18.0778C8.28288 17.8959 8.31708 17.7036 8.31708 17.5099C8.31278 17.094 8.16114 16.6935 7.88912 16.3788C7.93563 15.759 8.14961 15.2058 8.44841 14.8519L8.44842 14.8519ZM7.39242 17.7814C7.38089 17.8115 7.36779 17.8416 7.35294 17.8711C7.34689 17.882 7.34083 17.8935 7.33536 17.9055C7.04829 18.4307 6.21112 18.8231 5.25302 18.8231C4.52139 18.8231 3.8605 18.5945 3.46049 18.2525C3.69889 18.3049 3.94199 18.3325 4.18607 18.3346C4.67304 18.3346 5.17368 18.2082 5.56278 17.8197C6.02123 17.3611 6.92619 17.609 7.39244 17.7814L7.39242 17.7814ZM5.253 16.1967C5.98463 16.1967 6.64613 16.4254 7.04554 16.7679C6.38074 16.6251 5.53325 16.6108 4.94329 17.2002C4.48485 17.6586 3.57928 17.4109 3.11364 17.2385C3.32859 16.652 4.22107 16.1968 5.25305 16.1968L5.253 16.1967ZM27.1394 19.9174C27.139 20.2799 26.8453 20.5736 26.4828 20.574H1.53231C1.16982 20.5736 0.876122 20.2799 0.875721 19.9174V19.6986H27.1394V19.9174Z" fill="#967E76"/>
<path d="M14.4133 5.00901C14.5392 5.37873 14.7432 5.71698 15.0115 6.00093C15.1817 6.17093 15.4574 6.17132 15.628 6.00171C15.799 5.8317 15.801 5.55557 15.6321 5.38343C15.5303 5.27947 14.6654 4.33954 15.6306 3.37459C16.467 2.538 16.4175 1.68736 16.2287 1.12106V1.12087C16.1029 0.751145 15.8989 0.412899 15.6306 0.128951C15.46 -0.0424287 15.1829 -0.043014 15.0115 0.127387C14.8401 0.297986 14.8393 0.57508 15.0099 0.74646C15.1117 0.850419 15.9766 1.79035 15.0115 2.75531C14.1751 3.59209 14.2246 4.44269 14.4133 5.00903L14.4133 5.00901Z" fill="#967E76"/>
<path d="M11.2029 5.00912C11.3289 5.37885 11.533 5.71709 11.8011 6.00104C11.9713 6.17105 12.247 6.17144 12.4176 6.00182C12.5888 5.83181 12.5905 5.55569 12.4219 5.38355C12.3201 5.27959 11.4552 4.33966 12.4203 3.3747C13.2567 2.53812 13.2072 1.68748 13.0185 1.12118L13.0183 1.12098C12.8924 0.751262 12.6884 0.413216 12.4201 0.129268C12.2497 -0.0421111 11.9724 -0.0428915 11.801 0.127705C11.6297 0.298104 11.6289 0.575203 11.7995 0.746777C11.9013 0.850737 12.7662 1.79067 11.801 2.75562C10.9647 3.59221 11.0141 4.44285 11.2029 5.00915L11.2029 5.00912Z" fill="#967E76"/>
<path d="M17.6229 5.00901C17.7487 5.37873 17.9528 5.71698 18.2211 6.00093C18.3913 6.17093 18.667 6.17132 18.8376 6.00171C19.0086 5.8317 19.0105 5.55557 18.8417 5.38343C18.7399 5.27947 17.875 4.33954 18.8401 3.37459C19.6765 2.538 19.627 1.68736 19.4383 1.12106V1.12087C19.3122 0.751145 19.1082 0.412899 18.8401 0.128951C18.6695 -0.0424287 18.3924 -0.043014 18.221 0.127387C18.0495 0.297986 18.0489 0.575081 18.2193 0.74666C18.3211 0.850619 19.186 1.79055 18.2208 2.75551C17.3845 3.59209 17.4341 4.44274 17.6229 5.00903L17.6229 5.00901Z" fill="#967E76"/>
</svg>
