<svg width="28" height="28" viewBox="0 0 28 28" fill="none" xmlns="http://www.w3.org/2000/svg">
<path d="M16.9846 0.553188C16.786 0.38332 16.5458 0.315017 16.2927 0.352966C15.594 0.460777 14.9885 1.38154 14.8744 1.56502L9.65835 14.2633C9.3501 13.8856 9.02864 13.689 8.69721 13.6838C8.6923 13.6834 8.68761 13.6834 8.6827 13.6834C7.91573 13.6834 7.52579 14.6586 7.39699 14.9805C6.56887 17.0512 1.12613 27.0507 1.07127 27.1513L0.784668 27.6772H27.2161L24.6578 21.7161C23.021 16.8781 17.6567 1.12921 16.9847 0.553211L16.9846 0.553188ZM15.4931 1.91679C15.7049 1.58509 16.1268 1.09827 16.4009 1.0561C16.4422 1.05008 16.4757 1.05387 16.4982 1.06994C16.8719 1.54985 18.9355 7.29737 21.0704 13.4448C20.584 12.5883 20.0699 12.3151 19.661 12.2653L18.4286 9.072C18.3757 8.87937 18.0028 7.68497 16.9523 7.68497C15.855 7.68497 15.401 9.01331 15.3737 9.10103L13.2543 18.153C12.578 17.9503 11.0617 17.3651 10.5983 16.0907C10.4454 15.6698 10.2876 15.3077 10.1262 14.9967L15.4931 1.91679ZM8.0571 15.2454C8.30777 14.6186 8.5446 14.3951 8.68367 14.3951H8.6859C8.86938 14.3983 9.35173 14.7911 9.8915 16.2308C9.60646 17.2659 7.09264 25.8583 2.20864 26.5474C3.60036 23.9764 7.3571 16.9948 8.05664 15.2451L8.0571 15.2454ZM10.3701 17.1326C10.689 17.5585 11.0937 17.8924 11.5071 18.1498C11.2491 19.3748 9.76024 25.087 4.24367 26.5978C7.76196 24.652 9.72424 19.2321 10.37 17.1327L10.3701 17.1326ZM12.156 18.4998C12.523 18.6683 12.8547 18.7799 13.0915 18.8483L12.7942 20.1177C12.739 20.3527 11.5703 25.0393 6.39932 26.5205C10.4672 24.3957 11.8152 19.9554 12.1565 18.4994L12.156 18.4998ZM13.4868 20.2797L16.0571 9.29513C16.06 9.2862 16.3774 8.39605 16.9526 8.39605C17.5156 8.39605 17.7437 9.26079 17.7455 9.26816L18.9533 12.4075C18.3998 12.7008 17.9314 13.4215 17.6069 14.5102L16.2185 18.9865C16.1417 19.2611 14.5341 24.7385 8.44824 26.4556C12.4784 24.369 13.4744 20.3345 13.4869 20.2796L13.4868 20.2797ZM9.16561 26.9666C15.2296 24.9353 16.8839 19.2483 16.9005 19.1871L18.2875 14.717C18.6629 13.457 19.1596 12.9873 19.4989 12.9672C19.8897 12.9545 20.3312 13.4391 20.6957 14.2889L26.1364 26.9666L9.16561 26.9666Z" fill="#967E76"/>
</svg>
