<svg width="28" height="19" viewBox="0 0 28 19" fill="none" xmlns="http://www.w3.org/2000/svg">
<path d="M5.27294 15.5443C4.97005 15.433 4.63593 15.5924 4.52635 15.9006L3.73311 18.133C3.67531 18.2823 3.67941 18.4489 3.74424 18.595C3.80908 18.7414 3.92918 18.8545 4.0774 18.9091C4.22542 18.9636 4.38908 18.9549 4.53066 18.8847C4.67243 18.8145 4.78023 18.6891 4.82964 18.5368L5.62287 16.3043C5.73223 15.9962 5.57562 15.6561 5.27292 15.5443L5.27294 15.5443ZM18.3726 15.4376C18.2191 15.4636 18.0824 15.5511 17.9925 15.6803C17.9027 15.8097 17.8674 15.9703 17.8943 16.1262L18.3027 18.5012C18.3532 18.7823 18.5934 18.9871 18.8743 18.9881H18.9793H18.9791C19.1326 18.962 19.2695 18.8746 19.3594 18.7451C19.4492 18.6157 19.4845 18.4553 19.4574 18.2992L19.0491 15.9242L19.0492 15.9244C19.0235 15.7682 18.9377 15.6288 18.8106 15.5374C18.6835 15.4459 18.5259 15.4099 18.3726 15.4376H18.3726ZM9.64732 15.4376C9.49402 15.4099 9.33642 15.4459 9.20929 15.5374C9.08216 15.6288 8.99643 15.7682 8.97066 15.9244L8.56231 18.2994L8.56251 18.2992C8.53537 18.4553 8.57071 18.6157 8.66054 18.7451C8.75037 18.8746 8.88727 18.962 9.04076 18.9881H9.14583H9.14563C9.42645 18.9871 9.66666 18.7823 9.71725 18.5012L10.1256 16.1262C10.1525 15.9703 10.1172 15.8097 10.0274 15.6803C9.93753 15.5511 9.80084 15.4636 9.64734 15.4376H9.64732ZM14.01 15.4376C13.688 15.4376 13.4267 15.7034 13.4267 16.0312V18.4062C13.4267 18.734 13.688 19 14.01 19C14.332 19 14.5933 18.734 14.5933 18.4062V16.0312C14.5933 15.8737 14.5318 15.7228 14.4224 15.6113C14.3131 15.5 14.1647 15.4376 14.01 15.4376V15.4376ZM23.4936 15.9008V15.9006C23.4442 15.7483 23.3364 15.6229 23.1948 15.5527C23.0531 15.4825 22.8896 15.4738 22.7414 15.5284C22.5932 15.5829 22.4731 15.6962 22.4082 15.8423C22.3434 15.9884 22.3395 16.1552 22.3971 16.3043L23.1903 18.5368C23.3061 18.8358 23.6346 18.9869 23.9314 18.8775C24.2283 18.7682 24.3859 18.4382 24.2869 18.133L23.4936 15.9008ZM27.2614 0.997598C26.6953 0.359872 25.8896 -0.00273265 25.0452 1.55084e-05H2.97482C2.13449 0.00061191 1.33366 0.363017 0.770236 0.997598C0.213066 1.61008 -0.0624446 2.43448 0.0119448 3.26564L0.723543 10.3905C0.801851 11.1314 1.14907 11.8161 1.69705 12.3101C2.24503 12.8043 2.95447 13.0725 3.68642 13.0623H24.3335C25.0615 13.0665 25.7651 12.7957 26.3082 12.3021C26.8512 11.8085 27.195 11.1274 27.2731 10.3905L27.9847 3.26564C28.0685 2.43967 27.8058 1.61604 27.2613 0.997598H27.2614ZM5.13311 11.8747C5.17588 11.5441 5.33582 11.241 5.58285 11.0223C5.82989 10.8034 6.14722 10.6843 6.47452 10.6871H21.5459C21.872 10.6847 22.1876 10.8042 22.4328 11.0233C22.6779 11.2421 22.8355 11.5451 22.8755 11.8747L5.13311 11.8747ZM26.1301 10.2716C26.0807 10.7185 25.8692 11.1308 25.5368 11.4272C25.2047 11.7238 24.7754 11.8835 24.3337 11.8747H24.0654C24.0211 11.2288 23.7373 10.6243 23.2718 10.1834C22.8062 9.74244 22.1934 9.49811 21.5574 9.49969H6.47451C5.71582 9.49611 4.99602 9.84063 4.51484 10.4378C4.18911 10.8466 3.99731 11.3491 3.96667 11.8747H3.68663C3.24685 11.8805 2.82055 11.7195 2.4907 11.4232C2.16085 11.127 1.95113 10.7165 1.90193 10.2716L1.70352 8.31228H26.3165L26.1301 10.2716ZM26.4334 7.12467H1.58694L1.1786 3.14676C1.1286 2.65156 1.29011 2.15854 1.62189 1.79294C1.96755 1.40409 2.45987 1.18381 2.975 1.18742H25.0453C25.5564 1.18703 26.0438 1.40709 26.3867 1.79294C26.7228 2.15653 26.8886 2.64975 26.8418 3.14676L26.4334 7.12467ZM15.7599 4.74985H12.2604C11.9384 4.74985 11.6771 5.01565 11.6771 5.34346C11.6771 5.67147 11.9384 5.93726 12.2604 5.93726H15.7599C16.0819 5.93726 16.3432 5.67147 16.3432 5.34346C16.3432 5.01564 16.0819 4.74985 15.7599 4.74985Z" fill="#967E76"/>
</svg>
