<svg width="25" height="22" viewBox="0 0 25 22" fill="none" xmlns="http://www.w3.org/2000/svg">
<path fill-rule="evenodd" clip-rule="evenodd" d="M6.37056 3.57021V1.65751C6.37056 0.742069 7.10504 0 8.01111 0H16.3473C17.2534 0 17.9879 0.742069 17.9879 1.65751V3.57021H22.5083C23.5149 3.57021 24.331 4.39468 24.331 5.41178V20.1443C24.331 21.1614 23.5149 21.9858 22.5083 21.9858H1.82293C0.816088 21.9858 0 21.1614 0 20.1443V5.41178C0 4.39468 0.816088 3.57021 1.82293 3.57021H6.37056ZM7.46435 1.65751C7.46435 1.35243 7.70911 1.10499 8.01111 1.10499H16.3473C16.6494 1.10499 16.8943 1.35241 16.8943 1.65751V3.57021H7.46404L7.46435 1.65751ZM1.82345 4.6752H4.03757V20.8807H1.82345C1.42063 20.8807 1.09426 20.5509 1.09426 20.1442V5.41172C1.09426 5.00501 1.42061 4.6752 1.82345 4.6752ZM5.1313 20.8807V4.6752H19.2278V20.8807H5.1313ZM20.3213 20.8807H22.5086C22.9112 20.8807 23.2378 20.5509 23.2378 20.1442V5.41172C23.2378 5.00501 22.9113 4.6752 22.5086 4.6752H20.3213V20.8807Z" fill="#967E76"/>
</svg>
