<svg width="21" height="26" viewBox="0 0 21 26" fill="none" xmlns="http://www.w3.org/2000/svg">
<path d="M17.0335 0.34381C16.9152 0.131609 16.6912 0 16.4482 0H3.82416C3.58116 0 3.35714 0.13192 3.2389 0.34381C1.62969 3.24179 -0.194262 6.52648 0.0167361 10.0765C0.0960768 11.4038 0.474735 12.5137 1.14214 13.3758C1.99681 14.4807 3.44831 15.3242 5.34036 15.8161C5.53607 15.8669 5.73364 15.9138 5.93277 15.9574C7.09084 16.2104 8.27693 16.3501 9.4667 16.3896V23.9846L4.44925 23.9849C4.07993 23.9849 3.7803 24.2845 3.7803 24.6538C3.7803 25.0231 4.07993 25.3228 4.44925 25.3228H15.8236C16.1929 25.3228 16.4925 25.0231 16.4925 24.6538C16.4925 24.2845 16.1929 23.9849 15.8236 23.9849H10.8052V16.3899C11.9956 16.3498 13.1817 16.2101 14.34 15.9571C14.5382 15.9135 14.7358 15.8669 14.9318 15.8161C16.8236 15.3242 18.2751 14.4807 19.1297 13.3758C19.7971 12.5131 20.1761 11.4035 20.2551 10.0759C20.4667 6.5264 18.6428 3.24163 17.0336 0.34397L17.0335 0.34381ZM4.21746 1.33763H16.0546C17.1236 3.26672 18.245 5.36786 18.7098 7.53496L1.56313 7.53527C2.02797 5.36786 3.14932 3.26735 4.2181 1.33762L4.21746 1.33763ZM18.9196 9.99661C18.8562 11.0502 18.5712 11.912 18.0712 12.5573C17.2227 13.6541 15.7131 14.2309 14.596 14.5208C14.4159 14.5672 14.2348 14.6105 14.0531 14.6503C12.7734 14.93 11.4569 15.07 10.1412 15.0703C10.1393 15.0703 10.1377 15.07 10.1359 15.07C10.134 15.07 10.1324 15.0703 10.13 15.0703C8.81354 15.07 7.49769 14.9297 6.21888 14.6506C6.03654 14.6105 5.85577 14.5672 5.67562 14.5208C4.55834 14.2309 3.04838 13.6543 2.19985 12.5573C1.69985 11.912 1.41421 11.0501 1.35139 9.99685C1.32899 9.6213 1.33397 9.24668 1.36197 8.87271H18.9085C18.9372 9.24671 18.9421 9.62163 18.9197 9.99653L18.9196 9.99661Z" fill="#967E76"/>
</svg>
