<svg width="26" height="28" viewBox="0 0 26 28" fill="none" xmlns="http://www.w3.org/2000/svg">
<path d="M1.90858 25.0636C5.38647 26.6662 9.1703 27.4964 12.9994 27.4964C16.8287 27.4964 20.6126 26.6662 24.0903 25.0636C24.716 24.7716 25.1916 24.2318 25.4028 23.5745C25.6178 22.9053 25.5441 22.1769 25.1997 21.5646L24.2653 19.9117L24.2644 19.9093L24.2628 19.9075L13.4343 0.750341C13.3385 0.603244 13.1749 0.514404 12.9992 0.514404C12.8235 0.514404 12.6599 0.603244 12.5642 0.750341L1.7356 19.9075L1.73404 19.9093L1.73314 19.9117L0.798743 21.5646C0.454326 22.1769 0.380663 22.9053 0.595617 23.5745C0.806777 24.2316 1.28225 24.7713 1.90767 25.0636H1.90858ZM13 2.0127L23.1406 19.9538C20.0212 21.6228 16.5377 22.496 13 22.496C9.4623 22.496 5.97887 21.6228 2.85944 19.9538L13 2.0127ZM1.67087 22.0567L2.36773 20.8239H2.3675C5.63693 22.5781 9.28979 23.4962 13.0001 23.4962C16.7104 23.4962 20.3629 22.5782 23.6327 20.8239L24.3295 22.0567H24.3293C24.5369 22.4257 24.5813 22.8645 24.4518 23.2676C24.3288 23.6607 24.0449 23.9832 23.6706 24.1553C20.3248 25.6975 16.6843 26.4962 13.0003 26.4962C9.31588 26.4962 5.67571 25.6975 2.32942 24.1553C1.95554 23.983 1.67182 23.6605 1.54885 23.2676C1.41939 22.8645 1.46381 22.4257 1.6714 22.0567H1.67087ZM8.50001 20.4962C9.03037 20.4962 9.5391 20.2855 9.9143 19.9102C10.2893 19.5352 10.5 19.0265 10.5 18.4962C10.5 17.9656 10.2893 17.4569 9.9143 17.0819C9.53908 16.7069 9.03036 16.4962 8.50001 16.4962C7.96967 16.4962 7.46093 16.7069 7.08573 17.0819C6.71073 17.4569 6.50001 17.9656 6.50001 18.4962C6.50068 19.0263 6.71162 19.5348 7.08641 19.9096C7.46141 20.2846 7.96967 20.4955 8.50001 20.4962ZM8.50001 17.4962C8.76519 17.4962 9.01966 17.6015 9.20716 17.789C9.39465 17.9765 9.50001 18.231 9.50001 18.4962C9.50001 18.7614 9.39465 19.0156 9.20716 19.2033C9.01966 19.3908 8.76519 19.4962 8.50001 19.4962C8.23484 19.4962 7.98037 19.3908 7.79287 19.2033C7.60537 19.0156 7.50001 18.7614 7.50001 18.4962C7.50024 18.231 7.60582 17.9768 7.79309 17.7893C7.98059 17.6018 8.23484 17.4964 8.50001 17.4962L8.50001 17.4962ZM13.5 14.4962C13.5 15.0265 13.7107 15.5353 14.0857 15.9102C14.461 16.2855 14.9697 16.4962 15.5 16.4962C16.0304 16.4962 16.5391 16.2855 16.9143 15.9102C17.2893 15.5352 17.5 15.0265 17.5 14.4962C17.5 13.9656 17.2893 13.4569 16.9143 13.0819C16.5391 12.7069 16.0304 12.4962 15.5 12.4962C14.9697 12.4966 14.4614 12.7076 14.0864 13.0826C13.7116 13.4576 13.5007 13.9658 13.5 14.4962ZM16.5 14.4962C16.5 14.7614 16.3947 15.0156 16.2072 15.2033C16.0197 15.3908 15.7652 15.4962 15.5 15.4962C15.2348 15.4962 14.9804 15.3908 14.7929 15.2033C14.6054 15.0156 14.5 14.7614 14.5 14.4962C14.5 14.231 14.6054 13.9765 14.7929 13.789C14.9804 13.6015 15.2348 13.4962 15.5 13.4962C15.7652 13.4964 16.0194 13.6018 16.2069 13.7893C16.3942 13.9768 16.4998 14.231 16.5 14.4962L16.5 14.4962ZM17.4741 20.1545V20.1542C17.3866 20.4161 17.1038 20.5576 16.8418 20.4708L13.8418 19.4708C13.5797 19.3835 13.438 19.1 13.5255 18.838C13.6128 18.5759 13.896 18.4342 14.1583 18.5214L17.1583 19.5214C17.4199 19.6094 17.5612 19.8924 17.4741 20.1542L17.4741 20.1545ZM8.6467 14.3499V14.3497C8.55295 14.2559 8.50027 14.1289 8.50027 13.9963C8.50027 13.8637 8.55295 13.7365 8.6467 13.6428L10.6467 11.6428C10.7402 11.5474 10.8679 11.4934 11.0014 11.4928C11.1349 11.4921 11.263 11.5448 11.3574 11.6392C11.4516 11.7336 11.5045 11.8617 11.5038 11.9952C11.5032 12.1287 11.4492 12.2564 11.3538 12.3497L9.35384 14.3497C9.26009 14.4436 9.13286 14.4963 9.00027 14.4963C8.86768 14.4963 8.74045 14.4436 8.6467 14.3497V14.3499ZM12.6467 8.3499V8.34967C12.5514 8.25637 12.4974 8.12869 12.4967 7.99521C12.496 7.86173 12.5487 7.73361 12.6431 7.63918C12.7375 7.54476 12.8657 7.49209 12.9992 7.49275C13.1326 7.49342 13.2603 7.54744 13.3538 7.64275L15.3538 9.64275C15.4492 9.73628 15.5032 9.86374 15.5038 9.99722C15.5045 10.1307 15.4516 10.259 15.3574 10.3532C15.263 10.4477 15.1349 10.5003 15.0014 10.4997C14.8679 10.499 14.7402 10.445 14.6467 10.3497L12.6467 8.3499Z" fill="#967E76"/>
</svg>
