<svg width="60" height="57" viewBox="0 0 60 57" fill="none" xmlns="http://www.w3.org/2000/svg">
<path d="M58.8 27.6007H57.6V9.60068C57.6 6.24068 54.96 3.60068 51.6 3.60068C48.24 3.60068 45.6 6.24068 45.6 9.60068C44.88 9.60068 44.4 10.0807 44.4 10.8007C44.4 11.5207 44.88 12.0007 45.6 12.0007H48C48.72 12.0007 49.2 11.5207 49.2 10.8007C49.2 10.0807 48.72 9.60068 48 9.60068C48 7.56068 49.56 6.00068 51.6 6.00068C53.64 6.00068 55.2 7.56068 55.2 9.60068V27.6007H48V25.2007C48 24.4807 47.52 24.0007 46.8 24.0007H32.4C31.68 24.0007 31.2 24.4807 31.2 25.2007V27.6007H1.2C0.48 27.6007 0 28.0807 0 28.8007C0 29.5207 0.48 30.0007 1.2 30.0007H2.4C2.64 38.0407 5.76 48.3614 10.8 52.6814C11.76 53.5214 13.08 54.0014 14.4 54.0014V55.2014C14.4 55.9214 14.88 56.4014 15.6 56.4014C16.32 56.4014 16.8 55.9214 16.8 55.2014V54.0014H43.2V55.2014C43.2 55.9214 43.68 56.4014 44.4 56.4014C45.12 56.4014 45.6 55.9214 45.6 55.2014V54.0014C46.92 54.0014 48.24 53.5214 49.2 52.6814C54.24 48.4814 57.24 38.1607 57.6 30.0007H58.8C59.52 30.0007 60 29.5207 60 28.8007C60 28.0807 59.52 27.6007 58.8 27.6007ZM33.6 26.4007H45.6V37.2007H33.6V26.4007ZM33.6 39.6007H45.6V42.0007H33.6V39.6007ZM47.6407 50.7607C47.0407 51.2407 46.2007 51.6007 45.3607 51.6007H14.6407C13.8007 51.6007 12.9607 51.3607 12.3607 50.7607C7.92069 47.0407 5.16069 37.3207 4.80069 30H31.2007V43.2C31.2007 43.92 31.6807 44.4 32.4007 44.4H46.8007C47.5207 44.4 48.0007 43.92 48.0007 43.2V30H55.2007C54.8407 37.44 52.0807 47.04 47.6407 50.7607ZM12 15.6C14.04 15.6 15.6 14.04 15.6 12C15.6 9.96 14.04 8.4 12 8.4C9.96 8.4 8.4 9.96 8.4 12C8.4 14.04 9.96 15.6 12 15.6ZM12 10.8C12.72 10.8 13.2 11.28 13.2 12C13.2 12.72 12.72 13.2 12 13.2C11.28 13.2 10.8 12.72 10.8 12C10.8 11.28 11.28 10.8 12 10.8ZM25.2 9.6C27.84 9.6 30 7.44 30 4.8C30 2.16 27.84 0 25.2 0C22.56 0 20.4 2.16 20.4 4.8C20.4 7.44 22.56 9.6 25.2 9.6ZM25.2 2.4C26.52 2.4 27.6 3.48 27.6 4.8C27.6 6.12 26.52 7.2 25.2 7.2C23.88 7.2 22.8 6.12 22.8 4.8C22.8 3.48 23.88 2.4 25.2 2.4ZM19.2 25.2C21.24 25.2 22.8 23.64 22.8 21.6C22.8 19.56 21.24 18 19.2 18C17.16 18 15.6 19.56 15.6 21.6C15.6 23.64 17.16 25.2 19.2 25.2ZM19.2 20.4C19.92 20.4 20.4 20.88 20.4 21.6C20.4 22.32 19.92 22.8 19.2 22.8C18.48 22.8 18 22.32 18 21.6C18 20.88 18.48 20.4 19.2 20.4Z" fill="#967E76"/>
</svg>
