<svg width="35" height="28" viewBox="0 0 35 28" fill="none" xmlns="http://www.w3.org/2000/svg">
<path d="M22.4591 8.59669C22.3336 8.90162 22.4831 9.24873 22.7881 9.37423C22.8599 9.40413 22.9376 9.41615 23.0153 9.41615C23.2487 9.41615 23.4759 9.27249 23.5715 9.04527C24.0977 7.74735 23.8347 6.44937 23.5955 5.30129C23.3862 4.27248 23.2009 3.38736 23.5536 2.65173C23.6972 2.35268 23.5715 1.99382 23.2724 1.85629C22.9734 1.71263 22.6204 1.8384 22.477 2.13745C21.9507 3.23809 22.1958 4.41024 22.423 5.54075C22.6444 6.61734 22.8537 7.63411 22.4588 8.59695L22.4591 8.59669Z" fill="#967E76"/>
<path d="M17.0581 8.64427C16.9563 8.96121 17.1299 9.29631 17.4468 9.39774C17.5066 9.41563 17.5665 9.42764 17.6263 9.42764C17.8775 9.42764 18.1168 9.2661 18.1945 9.00897C18.697 7.42985 18.4516 5.88093 18.2124 4.37953C18.003 3.06958 17.8057 1.83756 18.1883 0.808824C18.3021 0.497757 18.1464 0.156784 17.8353 0.0371703C17.5243 -0.0765784 17.1833 0.0790908 17.0637 0.39016C16.5732 1.71186 16.8065 3.16549 17.0279 4.56484C17.2431 5.92257 17.4706 7.32814 17.0519 8.63781L17.0581 8.64427Z" fill="#967E76"/>
<path d="M11.6935 8.59669C11.568 8.90162 11.7175 9.24873 12.0224 9.37423C12.0943 9.40413 12.172 9.41615 12.2497 9.41615C12.483 9.41615 12.7103 9.27249 12.8058 9.04527C13.3321 7.74735 13.0691 6.44937 12.8299 5.30129C12.6205 4.27248 12.4352 3.38736 12.788 2.65173C12.9316 2.35268 12.8058 1.99382 12.5068 1.85629C12.2077 1.71263 11.8489 1.8384 11.7114 2.13745C11.1851 3.23809 11.4302 4.41024 11.6574 5.54075C11.8788 6.61734 12.0881 7.63411 11.6932 8.59695L11.6935 8.59669Z" fill="#967E76"/>
<path d="M22.1239 11.9639H12.5543C11.5017 11.9639 10.485 12.1076 9.50394 12.3527H9.42624C9.39633 12.3586 9.3723 12.3826 9.34239 12.3946C8.14619 12.7115 7.02183 13.202 5.99302 13.8359C5.93909 13.86 5.89129 13.8837 5.84937 13.9256C2.33848 16.1565 0 20.0682 0 24.524C0 26.1746 1.33989 27.5145 2.99051 27.5145H31.6932C33.3439 27.5145 34.6838 26.1746 34.6838 24.524C34.6838 17.5983 29.0496 11.9639 22.1236 11.9639L22.1239 11.9639ZM24.9889 13.543C25.7664 13.7465 26.5082 14.0274 27.2139 14.3804C26.281 17.5383 25.1624 18.9201 24.8754 18.9737C24.5286 18.7286 24.3014 16.671 24.9892 13.543H24.9889ZM18.5235 13.1601C18.4397 16.4198 17.7161 18.3935 17.3573 18.5489C16.9565 18.3935 16.2267 16.4257 16.1431 13.1601H18.5235ZM9.24713 18.9617C8.88827 18.9139 7.83574 17.562 6.9444 14.6554C7.62635 14.2666 8.35578 13.9377 9.11548 13.6984C9.81529 16.976 9.48021 18.7703 9.24711 18.9617H9.24713ZM31.6879 26.318H2.98449C1.99759 26.318 1.19018 25.5106 1.19018 24.5237C1.19018 20.7378 3.05633 17.3944 5.90931 15.3253C6.4476 16.9759 7.69158 20.1579 9.24077 20.1579C9.33049 20.1579 9.42607 20.1459 9.51579 20.1221C11.1605 19.7154 10.8196 15.9413 10.2754 13.3876C11.011 13.2381 11.7707 13.1604 12.5541 13.1604H14.9524C15.0242 15.8518 15.5804 19.7395 17.3389 19.7395C19.0974 19.7395 19.6536 15.8518 19.7254 13.1604H22.1237C22.7039 13.1604 23.266 13.2202 23.8225 13.304C23.2601 15.8938 22.8954 19.7037 24.5642 20.1283C24.654 20.1523 24.7378 20.1582 24.8275 20.1582C26.2031 20.1582 27.4832 17.5684 28.2786 14.9904C31.4066 17.0181 33.488 20.5287 33.488 24.53C33.488 25.5169 32.6806 26.3243 31.6937 26.3243L31.6879 26.318Z" fill="#967E76"/>
</svg>
