<svg width="21" height="28" viewBox="0 0 21 28" fill="currentColor" id="icon" xmlns="http://www.w3.org/2000/svg">
<path d="M20.4858 0.51416C20.2108 0.51416 19.9858 0.73916 19.9858 1.01416V8.11416C19.9858 8.88428 19.356 9.51416 18.5858 9.51416H18.4858C18.2108 9.51416 17.9858 9.73916 17.9858 10.0142V25.5142C17.9858 26.0642 17.5358 26.5142 16.9858 26.5142C16.4358 26.5142 15.9858 26.0642 15.9858 25.5142V10.0142C15.9858 9.73916 15.7608 9.51416 15.4858 9.51416H15.3858C14.6157 9.51416 13.9858 8.88428 13.9858 8.11416V1.01416C13.9858 0.73916 13.7608 0.51416 13.4858 0.51416C13.2108 0.51416 12.9858 0.73916 12.9858 1.01416V8.11416C12.9858 9.29919 13.8508 10.2891 14.9858 10.4791V25.514C14.9858 26.6189 15.8809 27.514 16.9858 27.514C18.0908 27.514 18.9858 26.6189 18.9858 25.514V10.4791C20.1209 10.2892 20.9858 9.29925 20.9858 8.11416V1.01416C20.9858 0.73916 20.7608 0.51416 20.4858 0.51416Z" fill="#967E76"/>
<path d="M15.9858 8.51416C16.2608 8.51416 16.4858 8.28916 16.4858 8.01416V1.01416C16.4858 0.73916 16.2608 0.51416 15.9858 0.51416C15.7108 0.51416 15.4858 0.73916 15.4858 1.01416V8.01416C15.4858 8.28916 15.7108 8.51416 15.9858 8.51416Z" fill="#967E76"/>
<path d="M17.9858 8.51416C18.2608 8.51416 18.4858 8.28916 18.4858 8.01416V1.01416C18.4858 0.73916 18.2608 0.51416 17.9858 0.51416C17.7108 0.51416 17.4858 0.73916 17.4858 1.01416V8.01416C17.4858 8.28916 17.7108 8.51416 17.9858 8.51416Z" fill="#967E76"/>
<path d="M5.48584 0.51416C2.83584 0.51416 0.98584 3.41416 0.98584 6.01416C0.98584 7.97422 2.00595 9.91908 3.48584 10.8791V25.3391C3.48584 26.5391 4.38093 27.5141 5.48584 27.5141C6.59075 27.5141 7.48584 26.5391 7.48584 25.3391V10.8791C8.96573 9.91416 9.98584 7.96907 9.98584 6.01416C9.98584 3.41416 8.13584 0.51416 5.48584 0.51416ZM6.48584 25.3393C6.48584 25.9893 6.03584 26.5143 5.48584 26.5143C4.93584 26.5143 4.48584 25.9893 4.48584 25.3393V11.3644C4.50593 11.3694 4.52088 11.3694 4.54075 11.3745C4.6508 11.4044 4.7557 11.4294 4.86575 11.4495C4.91575 11.4595 4.96084 11.4696 5.01084 11.4794C5.16575 11.4995 5.3258 11.5144 5.48584 11.5144C5.64589 11.5144 5.80593 11.4995 5.96575 11.4794C6.01575 11.4745 6.06084 11.4593 6.11084 11.4495C6.22089 11.4294 6.3258 11.4095 6.43584 11.3745C6.45593 11.3696 6.47089 11.3696 6.49075 11.3644V25.3393H6.48584ZM6.74589 10.1742C6.64589 10.2291 6.54098 10.2791 6.43584 10.3193C5.91575 10.5293 5.37578 10.5643 4.85081 10.4242C4.64077 10.3693 4.43072 10.2842 4.22578 10.1742C2.92578 9.4641 1.98584 7.7141 1.98584 6.0141C1.98584 3.65919 3.65595 1.5141 5.48584 1.5141C7.31573 1.5141 8.98584 3.65919 8.98584 6.0141C8.98584 7.7141 8.0459 9.4641 6.7459 10.1742H6.74589Z" fill="#967E76"/>
</svg>
