<svg width="33" height="20" viewBox="0 0 33 20" fill="none" xmlns="http://www.w3.org/2000/svg">
<path d="M32.9284 11.7169C32.9219 11.3073 32.7875 10.8912 32.5315 10.4945L32.5188 10.4754C31.3411 8.93941 29.69 7.96667 27.2389 7.48027C27.5717 6.82735 27.559 6.11712 27.4822 5.32981C27.4757 4.92021 27.3413 4.50415 27.0853 4.10747L27.0726 4.08827C24.8518 1.18267 20.9286 0.286726 13.0754 0.894726C11.629 0.907449 10.3426 2.21953 9.59373 4.42753L4.87698 5.43844C2.84172 5.87371 1.42098 6.80158 1.06892 7.9217C0.992136 8.17125 0.947273 8.49134 1.03053 8.84958C1.13923 9.98238 1.38254 11.2239 2.36802 11.8511C3.43676 12.5359 4.97293 12.8815 6.78407 12.8815C7.09122 12.8815 7.40482 12.8687 7.73116 12.8496C7.11042 13.2656 6.68785 13.7648 6.52156 14.3087C6.44477 14.5582 6.39991 14.8783 6.48317 15.2366C6.59187 16.3694 6.83518 17.6109 7.82065 18.2381C8.8894 18.9229 10.4256 19.2685 12.2367 19.2685C13.2479 19.2685 14.3423 19.1598 15.4943 18.9421L29.2412 15.9917L29.2668 15.9852C32.947 14.9104 33.107 13.4767 32.9278 11.7167L32.9284 11.7169ZM26.5221 4.47861C26.823 4.94579 26.8806 5.413 26.7013 5.86095C26.5029 6.36006 26.01 6.82723 25.3254 7.20495C23.4629 7.03865 21.223 7.0641 18.5157 7.27526C18.055 7.28174 17.607 7.41611 17.1909 7.67214C17.0373 4.82414 16.0581 2.48819 14.6822 1.45785C21.2228 1.09982 24.6085 1.98933 26.5222 4.47882L26.5221 4.47861ZM20.7426 9.58598L15.8082 10.6485C16.4674 8.97169 17.4785 7.95409 18.541 7.95409C19.3665 7.94762 20.141 8.56838 20.7426 9.58603L20.7426 9.58598ZM13.0815 1.56026C13.9134 1.56026 14.688 2.181 15.2896 3.1922L10.3552 4.25472C11.0081 2.57792 12.0257 1.56032 13.0815 1.56032V1.56026ZM1.69579 8.12026C1.96454 7.24998 3.23173 6.4754 5.00447 6.09146L15.6159 3.81312C16.1599 4.98432 16.5054 6.52672 16.5438 8.19078C16.1791 8.55551 15.8462 9.01643 15.5583 9.57312L9.89425 10.7892C6.95676 11.4164 3.38567 10.7892 2.09253 9.41329C1.68941 8.99053 1.5615 8.55523 1.69588 8.12021L1.69579 8.12026ZM2.71345 11.2819C2.33577 11.0386 2.09893 10.6481 1.94539 10.1939C3.13579 11.1475 5.26705 11.7107 7.48133 11.7107C8.33893 11.7107 9.20299 11.6274 10.0349 11.4482L15.2126 10.3346C15.155 10.4817 15.0974 10.629 15.0463 10.789L9.90698 11.8899C6.85429 12.4723 4.23669 12.2482 2.71326 11.2819L2.71345 11.2819ZM7.14847 14.5073C7.41722 13.637 8.68442 12.8624 10.4572 12.4785L21.0686 10.2001C21.6445 11.4354 21.9965 13.0738 21.9965 14.8465C21.9965 15.1474 21.9838 15.4546 21.9646 15.7552L15.3406 17.176C12.4031 17.8032 8.83198 17.176 7.53884 15.8001C7.14219 15.3778 7.00781 14.9425 7.14844 14.5072L7.14847 14.5073ZM29.081 15.3329L15.353 18.2769C12.3131 18.8593 9.69545 18.6354 8.17247 17.6624C7.79479 17.4191 7.55796 17.0287 7.40442 16.5745C8.59482 17.5281 10.7261 18.0912 12.9404 18.0912C13.798 18.0912 14.662 18.008 15.494 17.8287L29.2477 14.8783C30.4829 14.5839 31.5006 14.0718 32.1468 13.4254C31.8334 14.1682 31.0142 14.7698 29.0813 15.333L29.081 15.3329ZM32.1532 12.2546C31.8139 13.1057 30.6364 13.8611 29.0876 14.2258L22.6424 15.6081C22.6551 15.3521 22.6616 15.1026 22.6616 14.8465C22.6616 11.6465 21.6313 8.96483 20.1272 7.84483C26.6678 7.49282 30.0535 8.37609 31.9672 10.8721C32.2746 11.3393 32.3322 11.8065 32.1529 12.2544L32.1532 12.2546Z" fill="#967E76"/>
</svg>
