<svg width="20" height="20" viewBox="0 0 20 20" fill="none" xmlns="http://www.w3.org/2000/svg">
<path d="M0.840115 0C0.572875 0 0.357422 0.215276 0.357422 0.482693C0.357422 0.749934 0.572698 0.965387 0.840115 0.965387C10.7618 0.965387 18.8326 9.03621 18.8326 18.9579C18.8326 19.2251 19.0479 19.4406 19.3153 19.4406C19.5826 19.4406 19.798 19.2253 19.798 18.9579C19.8003 8.50631 11.2941 0.00017685 0.840292 0.00017685L0.840115 0Z" fill="#967E76"/>
<path d="M0.840115 5.49902C0.572875 5.49902 0.357422 5.7143 0.357422 5.98172C0.357422 6.24896 0.572698 6.46441 0.840115 6.46441C7.72784 6.46441 13.3335 12.0701 13.3335 18.9578C13.3335 19.225 13.5488 19.4405 13.8162 19.4405C14.0834 19.4405 14.2989 19.2252 14.2989 18.9578C14.3011 11.538 8.26233 5.4992 0.840292 5.4992L0.840115 5.49902Z" fill="#967E76"/>
<path d="M0.840115 11.001C0.572875 11.001 0.357422 11.2163 0.357422 11.4837C0.357422 11.7509 0.572698 11.9664 0.840115 11.9664C4.69592 11.9664 7.83435 15.1045 7.83435 18.9606C7.83435 19.2278 8.04963 19.4433 8.31705 19.4433C8.58429 19.4433 8.79974 19.228 8.79974 18.9606C8.7994 14.5698 5.23067 11.0012 0.840292 11.0012L0.840115 11.001Z" fill="#967E76"/>
<path d="M2.73487 15.9948C3.74392 16.4128 4.22299 17.5694 3.80504 18.5785C3.38709 19.5875 2.23026 20.0666 1.22138 19.6486C0.212331 19.2307 -0.266916 18.0739 0.151033 17.065C0.568981 16.0559 1.72582 15.5769 2.73487 15.9948Z" fill="#967E76"/>
</svg>
